<svg xmlns="http://www.w3.org/2000/svg"  viewBox="0 0 64 64" width="64px" height="64px"><path fill="#fff8ee" d="M57,13v38c0,3.31-2.69,6-6,6H13c-3.31,0-6-2.69-6-6V13c0-3.31,2.69-6,6-6h38C54.31,7,57,9.69,57,13z"/><path fill="#f9dd8f" d="M51,7H13c-3.314,0-6,2.686-6,6v10h50V13C57,9.686,54.314,7,51,7z"/><path fill="#ffeb9b" d="M53,7H11l-4,4c0,1.657,1.343,3,3,3h44c1.657,0,3-1.343,3-3L53,7z"/><path fill="#8d6c9f" d="M51,58H13c-3.859,0-7-3.141-7-7V13c0-3.859,3.141-7,7-7h38c3.859,0,7,3.141,7,7v38	C58,54.859,54.859,58,51,58z M13,8c-2.757,0-5,2.243-5,5v38c0,2.757,2.243,5,5,5h38c2.757,0,5-2.243,5-5V13c0-2.757-2.243-5-5-5H13z"/><path fill="#8d6c9f" d="M16,24H7c-0.553,0-1-0.447-1-1s0.447-1,1-1h9c0.553,0,1,0.447,1,1S16.553,24,16,24z"/><path fill="#8d6c9f" d="M57,24H16c-0.553,0-1-0.447-1-1s0.447-1,1-1h41c0.553,0,1,0.447,1,1S57.553,24,57,24z"/><path fill="#8d6c9f" d="M57,33H7c-0.276,0-0.5-0.224-0.5-0.5S6.724,32,7,32h50c0.276,0,0.5,0.224,0.5,0.5S57.276,33,57,33z"/><path fill="#8d6c9f" d="M57,42H7c-0.276,0-0.5-0.224-0.5-0.5S6.724,41,7,41h50c0.276,0,0.5,0.224,0.5,0.5S57.276,42,57,42z"/><path fill="#8d6c9f" d="M57,51H7c-0.276,0-0.5-0.224-0.5-0.5S6.724,50,7,50h50c0.276,0,0.5,0.224,0.5,0.5S57.276,51,57,51z"/><path fill="#8d6c9f" d="M17,16c0.552,0,1-0.448,1-1v-2c0-0.552-0.448-1-1-1s-1,0.448-1,1v2C16,15.552,16.448,16,17,16z M12,12c-0.552,0-1,0.448-1,1v2c0,0.552,0.448,1,1,1s1-0.448,1-1v-2C13,12.448,12.552,12,12,12z M32,16c0.552,0,1-0.448,1-1v-2	c0-0.552-0.448-1-1-1s-1,0.448-1,1v2C31,15.552,31.448,16,32,16z M37,16c0.552,0,1-0.448,1-1v-2c0-0.552-0.448-1-1-1s-1,0.448-1,1v2	C36,15.552,36.448,16,37,16z M42,16c0.552,0,1-0.448,1-1v-2c0-0.552-0.448-1-1-1s-1,0.448-1,1v2C41,15.552,41.448,16,42,16z M47,16	c0.552,0,1-0.448,1-1v-2c0-0.552-0.448-1-1-1s-1,0.448-1,1v2C46,15.552,46.448,16,47,16z M52,12c-0.552,0-1,0.448-1,1v2	c0,0.552,0.448,1,1,1s1-0.448,1-1v-2C53,12.448,52.552,12,52,12z M22,16c0.552,0,1-0.448,1-1v-2c0-0.552-0.448-1-1-1s-1,0.448-1,1v2	C21,15.552,21.448,16,22,16z M27,16c0.552,0,1-0.448,1-1v-2c0-0.552-0.448-1-1-1s-1,0.448-1,1v2C26,15.552,26.448,16,27,16z"/><circle cx="12" cy="27" r="1" fill="#8d6c9f"/><circle cx="8" cy="27" r="1" fill="#8d6c9f"/><circle cx="16" cy="27" r="1" fill="#8d6c9f"/><circle cx="20" cy="27" r="1" fill="#8d6c9f"/><circle cx="24" cy="27" r="1" fill="#8d6c9f"/><circle cx="28" cy="27" r="1" fill="#8d6c9f"/><circle cx="32" cy="27" r="1" fill="#8d6c9f"/><circle cx="36" cy="27" r="1" fill="#8d6c9f"/><circle cx="40" cy="27" r="1" fill="#8d6c9f"/><circle cx="44" cy="27" r="1" fill="#8d6c9f"/><circle cx="48" cy="27" r="1" fill="#8d6c9f"/><circle cx="52" cy="27" r="1" fill="#8d6c9f"/><circle cx="56" cy="27" r="1" fill="#8d6c9f"/></svg>